<?xml version="1.0" encoding="utf-8"?>
<!-- Generator: Adobe Illustrator 27.1.1, SVG Export Plug-In . SVG Version: 6.00 Build 0)  -->
<svg version="1.1" id="Layer_1" xmlns="http://www.w3.org/2000/svg" xmlns:xlink="http://www.w3.org/1999/xlink" x="0px" y="0px"
	 viewBox="0 0 3456 1728" style="enable-background:new 0 0 3456 1728;" xml:space="preserve">
<style type="text/css">
	.st0{fill:none;stroke:#FF0000;stroke-width:0.072;stroke-miterlimit:10;}
	.st1{fill:#00FF00;}
	.st2{font-family:'MyriadPro-Regular';}
	.st3{font-size:12px;}
</style>
<g>
	<circle class="st0" cx="1174.73" cy="208.39" r="11.76"/>
	<g>
		<circle class="st0" cx="1137.88" cy="208.39" r="5.95"/>
		<circle class="st0" cx="1211.58" cy="208.39" r="5.95"/>
	</g>
	<path class="st0" d="M1168.2,155.94l2.9,2.88c2.23,2.21,5.82,2.24,8.09,0.07l2.95-2.84c3.03-2.91,8.06-1.72,9.46,2.24l1.37,3.86
		c1.05,2.96,4.27,4.55,7.26,3.57l3.89-1.27c4-1.31,8.01,1.95,7.55,6.13l-0.44,4.07c-0.34,3.12,1.87,5.95,4.99,6.36l4.06,0.54
		c4.17,0.56,6.37,5.23,4.15,8.8l-2.17,3.47c-1.66,2.67-0.89,6.17,1.73,7.9l3.42,2.25c3.51,2.31,3.47,7.48-0.08,9.73l-3.46,2.19
		c-2.66,1.68-3.48,5.17-1.87,7.87l2.11,3.51c2.16,3.6-0.12,8.24-4.29,8.73l-4.07,0.47c-3.12,0.36-5.38,3.15-5.09,6.28l0.38,4.08
		c0.39,4.19-3.68,7.37-7.65,6l-3.87-1.34c-2.97-1.03-6.22,0.5-7.31,3.45l-1.43,3.84c-1.47,3.94-6.52,5.05-9.5,2.08l-2.9-2.88
		c-2.23-2.21-5.82-2.24-8.09-0.07l-2.95,2.84c-3.03,2.91-8.06,1.72-9.46-2.24l-1.36-3.86c-1.05-2.96-4.27-4.55-7.26-3.57l-3.89,1.27
		c-4,1.31-8.01-1.95-7.55-6.13l0.44-4.07c0.34-3.12-1.87-5.95-4.99-6.36l-4.06-0.54c-4.17-0.56-6.37-5.23-4.15-8.8l2.17-3.47
		c1.66-2.67,0.89-6.17-1.73-7.9l-3.42-2.25c-3.51-2.31-3.47-7.48,0.08-9.73l3.46-2.19c2.66-1.68,3.48-5.17,1.87-7.87l-2.11-3.51
		c-2.16-3.6,0.12-8.24,4.29-8.73l4.07-0.47c3.12-0.36,5.38-3.15,5.09-6.28l-0.38-4.08c-0.39-4.19,3.68-7.37,7.65-6l3.87,1.34
		c2.97,1.03,6.22-0.5,7.31-3.45l1.43-3.84C1160.17,154.08,1165.22,152.97,1168.2,155.94z"/>
</g>
<g>
	<path class="st0" d="M754.84,194.55c0,1.38-0.54,2.68-1.52,3.66l-2.88,2.9c-1.19,1.2-1.85,2.79-1.85,4.48
		c0,1.65,0.63,3.21,1.77,4.4l2.83,2.95c0.94,0.98,1.46,2.26,1.46,3.6c0,2.25-1.37,4.19-3.48,4.94l-3.86,1.37
		c-2.53,0.9-4.24,3.3-4.24,5.99c0,0.67,0.11,1.33,0.32,1.98l1.27,3.89c0.17,0.54,0.26,1.09,0.27,1.64c0,1.47-0.64,2.88-1.75,3.88
		c-1.11,1-2.55,1.46-4.04,1.29l-4.07-0.44c-3.46-0.38-6.53,2.03-6.99,5.48l-0.54,4.06c-0.24,1.77-1.34,3.27-2.95,4.03
		c-1.61,0.76-3.47,0.65-4.99-0.29l-3.47-2.17c-2.9-1.81-6.79-0.96-8.67,1.9l-2.25,3.42c-0.98,1.49-2.62,2.37-4.41,2.35
		c-1.78-0.02-3.41-0.92-4.37-2.43l-2.19-3.46c-1.83-2.89-5.71-3.81-8.64-2.05l-3.51,2.11c-1.53,0.92-3.39,0.99-4.99,0.21
		c-1.6-0.79-2.67-2.31-2.88-4.08l-0.47-4.07c-0.4-3.46-3.43-5.91-6.89-5.59l-4.08,0.38c-1.48,0.14-2.9-0.34-3.99-1.33
		c-1.09-1-1.72-2.4-1.72-3.85c0-0.58,0.1-1.16,0.29-1.72l1.34-3.87c0.23-0.67,0.35-1.37,0.35-2.08c0-2.64-1.66-5.03-4.14-5.95
		l-3.83-1.43c-2.06-0.77-3.4-2.7-3.4-4.91c0-1.38,0.54-2.68,1.52-3.66l2.88-2.9c1.19-1.2,1.85-2.79,1.85-4.48
		c0-1.65-0.63-3.21-1.77-4.4l-2.83-2.95c-0.94-0.98-1.46-2.26-1.46-3.6c0-2.25,1.37-4.19,3.48-4.94l3.86-1.37
		c2.53-0.9,4.24-3.3,4.24-5.99c0-0.67-0.11-1.33-0.32-1.98l-1.27-3.89c-0.18-0.54-0.27-1.09-0.27-1.64c0-1.47,0.64-2.88,1.75-3.88
		c1.11-1,2.55-1.46,4.04-1.29l4.07,0.44c3.46,0.38,6.53-2.03,6.99-5.48l0.54-4.06c0.24-1.77,1.34-3.27,2.95-4.03
		c1.61-0.76,3.48-0.65,4.99,0.29l3.47,2.17c2.95,1.84,6.76,1.01,8.67-1.9l2.25-3.42c0.98-1.49,2.62-2.37,4.41-2.35
		c1.78,0.01,3.41,0.92,4.37,2.43l2.19,3.46c1.86,2.94,5.65,3.84,8.64,2.05l3.51-2.11c1.53-0.92,3.39-1,4.99-0.21
		c1.6,0.79,2.68,2.31,2.88,4.08l0.47,4.07c0.4,3.46,3.43,5.91,6.89,5.6l4.08-0.38c1.48-0.14,2.9,0.34,3.98,1.33
		c1.09,1,1.72,2.4,1.72,3.85c0,0.58-0.1,1.16-0.29,1.72l-1.34,3.87c-0.23,0.67-0.35,1.37-0.35,2.08c0,2.64,1.66,5.03,4.14,5.95
		l3.84,1.43C753.5,190.41,754.84,192.34,754.84,194.55z"/>
	<path class="st0" d="M638.65,110.6c-18.24,12.11-23.98,36.47-12.76,55.27c7.13,11.95,13.42,25.25,13.42,39.27
		c0,14.02-6.29,27.32-13.42,39.27c-11.22,18.8-5.48,43.16,12.76,55.27c17.94,11.91,39.46,18.85,62.61,18.85
		c62.62,0,163.71-50.76,163.71-113.39S763.89,91.75,701.27,91.75C678.12,91.75,656.6,98.69,638.65,110.6z"/>
</g>
<text transform="matrix(1 0 0 1 855.421 362.7776)" class="st1 st2 st3">THE SPROCKET HAS AN OFFSET OF -0.2 mm</text>
<text transform="matrix(1 0 0 1 886.8436 341.2337)" class="st1 st2 st3">TO BE CUT FROM 1/4” ACRYLIC</text>
<text transform="matrix(1 0 0 1 1107.5212 300)" class="st1 st2 st3">TO BE CUT FROM 1/4” MDF</text>
<text transform="matrix(1 0 0 1 1090.5542 326.1738)" class="st1 st2 st3">MOUNTS DIRECTLY ONTO TT HUB</text>
<g>
	<path class="st0" d="M953.09,194.98c1.38,0,2.68,0.54,3.66,1.52l2.9,2.88c1.2,1.19,2.79,1.85,4.48,1.85c1.65,0,3.21-0.63,4.4-1.77
		l2.95-2.83c0.98-0.94,2.26-1.46,3.6-1.46c2.25,0,4.19,1.37,4.94,3.48l1.37,3.86c0.9,2.53,3.3,4.24,5.99,4.24
		c0.67,0,1.33-0.11,1.98-0.32l3.89-1.27c0.54-0.17,1.09-0.26,1.64-0.27c1.47,0,2.88,0.64,3.88,1.75c1,1.11,1.46,2.55,1.29,4.04
		l-0.44,4.07c-0.38,3.46,2.03,6.53,5.48,6.99l4.06,0.54c1.77,0.24,3.27,1.34,4.03,2.95c0.76,1.61,0.65,3.47-0.29,4.99l-2.17,3.47
		c-1.81,2.9-0.96,6.79,1.9,8.67l3.42,2.25c1.49,0.98,2.37,2.62,2.35,4.41c-0.02,1.78-0.92,3.41-2.43,4.37l-3.46,2.19
		c-2.89,1.83-3.81,5.71-2.05,8.64l2.11,3.51c0.92,1.53,0.99,3.39,0.21,4.99c-0.79,1.6-2.31,2.67-4.08,2.88l-4.07,0.47
		c-3.46,0.4-5.91,3.43-5.59,6.89l0.38,4.08c0.14,1.48-0.34,2.9-1.33,3.99c-1,1.09-2.4,1.72-3.85,1.72c-0.58,0-1.16-0.1-1.72-0.29
		l-3.87-1.34c-0.67-0.23-1.37-0.35-2.08-0.35c-2.64,0-5.03,1.66-5.95,4.14l-1.43,3.83c-0.77,2.06-2.7,3.4-4.91,3.4
		c-1.38,0-2.68-0.54-3.66-1.52l-2.9-2.88c-1.2-1.19-2.79-1.85-4.48-1.85c-1.65,0-3.21,0.63-4.4,1.77l-2.95,2.83
		c-0.98,0.94-2.26,1.46-3.6,1.46c-2.25,0-4.19-1.37-4.94-3.48l-1.37-3.86c-0.9-2.53-3.3-4.24-5.99-4.24c-0.67,0-1.33,0.11-1.98,0.32
		l-3.89,1.27c-0.54,0.18-1.09,0.27-1.64,0.27c-1.47,0-2.88-0.64-3.88-1.75c-1-1.11-1.46-2.55-1.29-4.04l0.44-4.07
		c0.38-3.46-2.03-6.53-5.48-6.99l-4.06-0.54c-1.77-0.24-3.27-1.34-4.03-2.95c-0.76-1.61-0.65-3.48,0.29-4.99l2.17-3.47
		c1.84-2.95,1.01-6.76-1.9-8.67l-3.42-2.25c-1.49-0.98-2.37-2.62-2.35-4.41c0.01-1.78,0.92-3.41,2.43-4.37l3.46-2.19
		c2.94-1.86,3.84-5.65,2.05-8.64l-2.11-3.51c-0.92-1.53-1-3.39-0.21-4.99c0.79-1.6,2.31-2.68,4.08-2.88l4.07-0.47
		c3.46-0.4,5.91-3.43,5.6-6.89l-0.38-4.08c-0.14-1.48,0.34-2.9,1.33-3.98c1-1.09,2.4-1.72,3.85-1.72c0.58,0,1.16,0.1,1.72,0.29
		l3.87,1.34c0.67,0.23,1.37,0.35,2.08,0.35c2.64,0,5.03-1.66,5.95-4.14l1.43-3.84C948.95,196.32,950.88,194.98,953.09,194.98z"/>
	<path class="st0" d="M908.99,87.67c74.58,0,135.03,60.45,135.03,135.02c0,52.2-42.32,94.52-94.52,94.52
		c-36.54,0-66.16-29.62-66.16-66.16c0-22.52,16.08-41.29,37.39-45.45c4.87-0.95,8.09-5.61,7.23-10.5L908.99,87.67z"/>
</g>
<g>
	<path class="st0" d="M244.93,258.71c-1.38,0-2.68-0.54-3.66-1.52l-2.9-2.88c-1.2-1.19-2.79-1.85-4.48-1.85
		c-1.65,0-3.21,0.63-4.4,1.77l-2.95,2.83c-0.98,0.94-2.26,1.46-3.6,1.46c-2.25,0-4.19-1.37-4.94-3.48l-1.37-3.86
		c-0.9-2.53-3.3-4.24-5.99-4.24c-0.67,0-1.33,0.11-1.98,0.32l-3.89,1.27c-0.54,0.17-1.09,0.26-1.64,0.27
		c-1.47,0-2.88-0.64-3.88-1.75c-1-1.11-1.46-2.55-1.29-4.04l0.44-4.07c0.38-3.46-2.03-6.53-5.48-6.99l-4.06-0.54
		c-1.77-0.24-3.27-1.34-4.03-2.95c-0.76-1.61-0.65-3.47,0.29-4.99l2.17-3.47c1.81-2.9,0.96-6.79-1.9-8.67l-3.42-2.25
		c-1.49-0.98-2.37-2.62-2.35-4.41c0.02-1.78,0.92-3.41,2.43-4.37l3.46-2.19c2.89-1.83,3.81-5.71,2.05-8.64l-2.11-3.51
		c-0.92-1.53-0.99-3.39-0.21-4.99c0.79-1.6,2.31-2.67,4.08-2.88l4.07-0.47c3.46-0.4,5.91-3.43,5.59-6.89l-0.38-4.08
		c-0.14-1.48,0.34-2.9,1.33-3.99c1-1.09,2.4-1.72,3.85-1.72c0.58,0,1.16,0.1,1.72,0.29l3.87,1.34c0.67,0.23,1.37,0.35,2.08,0.35
		c2.64,0,5.03-1.66,5.95-4.14l1.43-3.83c0.77-2.06,2.7-3.4,4.91-3.4c1.38,0,2.68,0.54,3.66,1.52l2.9,2.88
		c1.2,1.19,2.79,1.85,4.48,1.85c1.65,0,3.21-0.63,4.4-1.77l2.95-2.83c0.98-0.94,2.26-1.46,3.6-1.46c2.25,0,4.19,1.37,4.94,3.48
		l1.37,3.86c0.9,2.53,3.3,4.24,5.99,4.24c0.67,0,1.33-0.11,1.98-0.32l3.89-1.27c0.54-0.18,1.09-0.27,1.64-0.27
		c1.47,0,2.88,0.64,3.88,1.75c1,1.11,1.46,2.55,1.29,4.04l-0.44,4.07c-0.38,3.46,2.03,6.53,5.48,6.99l4.06,0.54
		c1.77,0.24,3.27,1.34,4.03,2.95c0.76,1.61,0.65,3.48-0.29,4.99l-2.17,3.47c-1.84,2.95-1.01,6.76,1.9,8.67l3.42,2.25
		c1.49,0.98,2.37,2.62,2.35,4.41c-0.01,1.78-0.92,3.41-2.43,4.37l-3.46,2.19c-2.94,1.86-3.84,5.65-2.05,8.64l2.11,3.51
		c0.92,1.53,1,3.39,0.21,4.99c-0.79,1.6-2.31,2.68-4.08,2.88l-4.07,0.47c-3.46,0.4-5.91,3.43-5.6,6.89l0.38,4.08
		c0.14,1.48-0.34,2.9-1.33,3.98c-1,1.09-2.4,1.72-3.85,1.72c-0.58,0-1.16-0.1-1.72-0.29l-3.87-1.34c-0.67-0.23-1.37-0.35-2.08-0.35
		c-2.64,0-5.03,1.66-5.95,4.14l-1.43,3.84C249.07,257.37,247.14,258.71,244.93,258.71z"/>
	<path class="st0" d="M255.37,103.56L255.37,103.56c24.97-18.28,59.77,1.81,56.42,32.58v0c-1.68,15.43,6.83,30.16,21.03,36.42l0,0
		c28.32,12.49,28.32,52.67,0,65.15l0,0c-14.2,6.26-22.71,21-21.03,36.42v0c3.35,30.77-31.45,50.86-56.42,32.58l0,0
		c-12.52-9.17-29.54-9.17-42.06,0l0,0c-24.97,18.28-59.77-1.81-56.42-32.58l0,0c1.68-15.43-6.83-30.16-21.03-36.42l0,0
		c-28.32-12.49-28.32-52.67,0-65.15l0,0c14.2-6.26,22.71-21,21.03-36.42l0,0c-3.35-30.77,31.45-50.86,56.42-32.58l0,0
		C225.83,112.73,242.85,112.73,255.37,103.56z"/>
</g>
<g>
	<path class="st0" d="M545.31,172.49c-0.54,1.27-1.54,2.25-2.83,2.78l-3.79,1.55c-1.56,0.64-2.79,1.85-3.45,3.4
		c-0.64,1.52-0.67,3.2-0.09,4.74l1.46,3.83c0.48,1.27,0.46,2.64-0.06,3.88c-0.88,2.07-2.89,3.32-5.13,3.19l-4.09-0.25
		c-2.68-0.16-5.19,1.39-6.24,3.86c-0.26,0.61-0.42,1.27-0.48,1.94l-0.35,4.08c-0.05,0.56-0.18,1.1-0.4,1.61
		c-0.57,1.35-1.71,2.4-3.13,2.89c-1.41,0.48-2.91,0.35-4.22-0.39l-3.57-2c-3.04-1.7-6.8-0.68-8.57,2.31l-2.08,3.52
		c-0.91,1.53-2.51,2.49-4.29,2.56c-1.78,0.07-3.45-0.76-4.48-2.22l-2.35-3.35c-1.97-2.8-5.88-3.53-8.73-1.63l-3.4,2.27
		c-1.48,0.99-3.34,1.16-4.98,0.45c-1.63-0.71-2.78-2.18-3.07-3.94l-0.67-4.04c-0.56-3.38-3.77-5.73-7.15-5.26l-4.05,0.57
		c-1.77,0.25-3.51-0.41-4.68-1.76c-1.16-1.35-1.56-3.17-1.06-4.88l1.15-3.93c0.98-3.34-0.85-6.78-4.16-7.84l-3.9-1.25
		c-1.42-0.45-2.53-1.44-3.15-2.78c-0.62-1.34-0.64-2.88-0.08-4.22c0.23-0.53,0.54-1.03,0.94-1.47l2.74-3.04
		c0.48-0.53,0.86-1.12,1.13-1.78c1.03-2.43,0.43-5.28-1.48-7.1l-2.97-2.81c-1.6-1.51-2.08-3.81-1.21-5.85
		c0.54-1.27,1.54-2.25,2.83-2.78l3.79-1.55c1.56-0.64,2.79-1.85,3.45-3.4c0.64-1.52,0.67-3.2,0.09-4.74l-1.46-3.82
		c-0.48-1.27-0.46-2.64,0.06-3.88c0.88-2.07,2.89-3.32,5.13-3.19l4.09,0.25c2.68,0.16,5.19-1.39,6.24-3.86
		c0.26-0.61,0.42-1.27,0.48-1.94l0.35-4.08c0.05-0.56,0.18-1.1,0.39-1.61c0.57-1.35,1.71-2.41,3.13-2.89
		c1.41-0.48,2.91-0.35,4.22,0.39l3.57,2c3.04,1.7,6.8,0.68,8.57-2.31l2.08-3.52c0.91-1.53,2.51-2.49,4.29-2.56
		c1.78-0.07,3.45,0.76,4.48,2.22l2.35,3.35c2,2.85,5.83,3.57,8.73,1.63l3.41-2.27c1.48-0.99,3.34-1.16,4.97-0.45
		c1.63,0.71,2.78,2.18,3.07,3.94l0.67,4.04c0.57,3.43,3.71,5.74,7.15,5.26l4.05-0.57c1.76-0.25,3.51,0.41,4.68,1.76
		c1.16,1.35,1.56,3.17,1.06,4.88l-1.15,3.93c-0.98,3.34,0.85,6.78,4.16,7.84l3.9,1.25c1.42,0.45,2.53,1.44,3.15,2.78
		c0.62,1.34,0.65,2.88,0.08,4.22c-0.23,0.53-0.54,1.03-0.94,1.47l-2.74,3.04c-0.48,0.53-0.86,1.13-1.14,1.78
		c-1.03,2.43-0.43,5.28,1.48,7.1l2.97,2.81C545.7,168.16,546.18,170.46,545.31,172.49z"/>
	<circle class="st0" cx="491.86" cy="205.14" r="109.91"/>
</g>
</svg>
